<svg id="achivments" viewBox="0 0 44 61" fill="none" xmlns="http://www.w3.org/2000/svg">
<g id="Layer_x0020_1">
<path id="Vector" fill-rule="evenodd" clip-rule="evenodd" d="M22.0391 46.8628C19.8316 41.6998 23.0475 35.8339 28.5874 34.9183L29.9581 34.6917C33.6418 34.0829 37.2722 36.0375 38.792 39.4479L40.7974 43.948C42.2945 47.3074 39.8104 51.0885 36.1327 51.0481C34.9906 51.0356 33.8781 51.4109 32.977 52.1125L32.6893 52.3366C29.5384 54.79 24.9186 53.5976 23.3487 49.9257L22.0391 46.8628Z" fill="#D0401B"/>
<path id="Vector_2" fill-rule="evenodd" clip-rule="evenodd" d="M22.9505 47.7547C25.4872 41.6564 20.9013 34.9677 14.2985 35.1356C10.7619 35.2254 7.59634 37.3527 6.17688 40.5932L3.15266 47.4973C1.67424 50.8725 4.17253 54.6484 7.85705 54.6076C9.00565 54.5948 10.1246 54.9722 11.0309 55.6779L11.2974 55.8854C14.4424 58.3342 19.0551 57.1194 20.586 53.4392L22.9505 47.7547Z" fill="#FF6600"/>
<path id="Vector_3" fill-rule="evenodd" clip-rule="evenodd" d="M22.3924 0.753889C23.5351 0.706967 24.4359 1.08938 25.344 1.64424C26.4978 2.34573 27.7958 3.73229 29.3981 4.61208C31.6531 5.84849 35.8282 4.14286 37.9671 7.19164C39.215 8.97 39.2736 10.3636 39.3665 11.7408C39.4668 13.227 39.7381 14.5936 41.3221 16.6054C43.9462 19.9346 44.4925 22.1505 43.1407 24.4602C42.2192 26.0345 40.2795 26.9096 39.8298 27.9067C38.8752 30.0288 39.9312 31.6276 38.6234 34.1016C37.7153 35.8166 36.3147 36.9475 34.4483 37.5246C32.8741 38.0103 31.295 37.3076 30.0361 37.8155C27.8215 38.7082 26.1886 40.7834 24.4274 41.3077C23.7466 41.5107 23.0695 41.6104 22.3924 41.6057C21.7165 41.6104 21.0381 41.5107 20.3586 41.3077C18.5962 40.7834 16.9633 38.7082 14.7486 37.8155C13.4897 37.3076 11.9106 38.0103 10.3364 37.5246C8.4713 36.9475 7.06942 35.8166 6.16131 34.1016C4.85353 31.6276 5.90953 30.0288 4.95498 27.9067C4.5052 26.9096 2.56554 26.0345 1.64399 24.4602C0.292216 22.1505 0.83977 19.9346 3.46265 16.6054C5.04664 14.5936 5.31798 13.227 5.4182 11.7408C5.51109 10.3636 5.56975 8.97 6.81764 7.19164C8.95652 4.14286 13.1316 5.84849 15.3866 4.61208C16.9902 3.73229 18.2869 2.34573 19.4407 1.64424C20.35 1.08938 21.2508 0.706967 22.3924 0.753889Z" fill="#F5C800"/>
<path id="Vector_4" fill-rule="evenodd" clip-rule="evenodd" d="M22.3922 0.754859C23.535 0.706763 24.4345 1.09035 25.3438 1.64404C26.4976 2.34553 27.7956 3.73208 29.3979 4.61188C32.662 6.40142 34.2713 8.5796 31.9616 11.4988L11.8084 36.9692C11.452 37.4196 10.8851 37.6936 10.3362 37.5244C8.46989 36.9473 7.06922 35.8176 6.16112 34.1014C4.85334 31.6274 5.90934 30.0286 4.95479 27.9065C4.50501 26.9094 2.56535 26.0343 1.6438 24.46C0.292024 22.1503 0.839578 19.9344 3.46124 16.6052C5.04645 14.5946 5.31779 13.2268 5.41801 11.7406C5.5109 10.3634 5.56956 8.96979 6.81623 7.19144C8.95633 4.14148 13.1326 5.84828 15.3864 4.61188C16.99 3.73208 18.288 2.34553 19.4405 1.64404C20.3498 1.09035 21.2506 0.706763 22.3922 0.754859Z" fill="#FFDD61"/>
<path id="Vector_5" d="M22.3312 36.748C31.1091 36.748 38.2249 29.9183 38.2249 21.4935C38.2249 13.0687 31.1091 6.23907 22.3312 6.23907C13.5534 6.23907 6.4375 13.0687 6.4375 21.4935C6.4375 29.9183 13.5534 36.748 22.3312 36.748Z" fill="#E37E00"/>
<path id="Vector_6" fill-rule="evenodd" clip-rule="evenodd" d="M22.3312 9.29968C29.3479 9.29968 35.0349 14.7591 35.0349 21.4936C35.0349 28.2282 29.3479 33.6876 22.3312 33.6876C15.3144 33.6876 9.62622 28.2282 9.62622 21.4936C9.62622 14.7591 15.3144 9.29968 22.3312 9.29968Z" fill="#F5C800"/>
<path id="Vector_7" fill-rule="evenodd" clip-rule="evenodd" d="M22.3312 9.29968C27.6535 9.29968 28.3799 15.8366 25.0209 19.9651L16.6932 30.2008C15.9773 31.0806 14.7036 31.3073 13.8441 30.5673C11.2554 28.3361 9.62622 25.0973 9.62622 21.4936C9.62622 14.7591 15.3144 9.29968 22.3312 9.29968Z" fill="#FFDD61"/>
<path id="Vector_8" d="M22.7064 14.3672C23.9362 17.1311 26.5711 19.0082 29.5851 19.2677L29.7549 19.2823C29.9786 19.3011 30.1436 19.4899 30.124 19.7034C30.1154 19.8078 30.0641 19.8993 29.9871 19.9627L29.9055 20.0311C27.6117 21.954 26.6009 25.0078 27.2946 27.9195C27.3447 28.1295 27.2078 28.3383 26.989 28.3864C26.8766 28.411 26.7653 28.3888 26.6761 28.3336C23.9853 26.7891 20.6637 26.7965 17.9727 28.3407C17.7808 28.4509 17.5315 28.3911 17.4166 28.2069C17.3604 28.1166 17.3469 28.0146 17.3689 27.9195C18.0626 25.0079 17.0516 21.9542 14.7575 20.0317L14.6752 19.9627C14.5065 19.8219 14.4894 19.5756 14.6373 19.4137C14.7118 19.3316 14.8157 19.287 14.9208 19.2811L15.0757 19.2678C18.0914 19.0082 20.7277 17.1302 21.9584 14.3648C22.0464 14.1666 22.2847 14.0751 22.49 14.1596C22.5927 14.2006 22.6673 14.2769 22.7064 14.3672Z" fill="#E37E00"/>
</g>
</svg>
