<svg id='history' viewBox="0 0 60 60" fill="none" xmlns="http://www.w3.org/2000/svg">
<g id="XMLID_228_">
<path id="XMLID_229_" d="M30 0C13.4314 0 0 13.4315 0 30C0 42.9536 8.20996 53.9894 19.7103 58.1885L58.1885 19.7103C53.9894 8.20996 42.9536 0 30 0Z" fill="#FFAE46"/>
<path id="XMLID_230_" d="M58.1883 19.7103L46.9563 8.47827L13.0432 51.5217L19.71 58.1885C22.9193 59.3604 26.3847 60 29.9997 60C46.5683 60 59.9997 46.5685 59.9997 30C59.9997 26.3851 59.3601 22.9196 58.1883 19.7103Z" fill="#FE843F"/>
<path id="XMLID_231_" d="M27.3912 11.087H24.7825V8.4783L26.0868 7.17395L27.3912 8.4783V11.087Z" fill="#FC5A37"/>
<path id="XMLID_232_" d="M13.0432 48.913V51.5217H29.9997L31.3041 50.2173L29.9997 48.913L21.5215 47.6086L13.0432 48.913Z" fill="#7BE3FF"/>
<path id="XMLID_233_" d="M13.0432 46.3043V48.913H29.9997L31.3041 47.6087L29.9997 46.3043L21.5215 45L13.0432 46.3043Z" fill="#E0F8FF"/>
<path id="XMLID_235_" d="M13.0432 8.47827V46.3044H29.9997L31.3041 27.3913L29.9997 8.47827H13.0432Z" fill="white"/>
<path id="XMLID_236_" d="M30 48.913V51.5217H46.9565V48.913L38.4783 47.6086L30 48.913Z" fill="#48D9FF"/>
<path id="XMLID_237_" d="M30 46.3043V48.913H46.9565V46.3043L38.4783 45L30 46.3043Z" fill="#ADEEFF"/>
<path id="XMLID_238_" d="M46.9565 35.8695H36.5217V46.3043H46.9565V35.8695Z" fill="#7BE3FF"/>
<path id="XMLID_239_" d="M30 8.47827V46.3044H36.5217L46.9565 35.8696V8.47827H30Z" fill="#E0F8FF"/>
<path id="XMLID_240_" d="M20.8696 20.3805V22.9892H30.0001L31.3044 21.6848L30.0001 20.3805H20.8696Z" fill="#A8CFFF"/>
<path id="XMLID_241_" d="M20.8696 25.5979V28.2066H30.0001L31.3044 26.9022L30.0001 25.5979H20.8696Z" fill="#A8CFFF"/>
<path id="XMLID_242_" d="M20.8696 30.8152V33.4239H30.0001L31.3044 32.1195L30.0001 30.8152H20.8696Z" fill="#A8CFFF"/>
<path id="XMLID_243_" d="M39.1304 20.3805H30V22.9892H39.1304V20.3805Z" fill="#73A7E6"/>
<path id="XMLID_244_" d="M39.1304 25.5979H30V28.2066H39.1304V25.5979Z" fill="#73A7E6"/>
<path id="XMLID_245_" d="M39.1304 30.8152H30V33.4239H39.1304V30.8152Z" fill="#73A7E6"/>
<path id="XMLID_307_" d="M36.5217 35.8695V46.3043L46.9565 35.8695H36.5217Z" fill="#ADEEFF"/>
<path id="XMLID_308_" d="M31.3042 17.6087C29.1466 17.6087 27.3912 15.8533 27.3912 13.6956V11.087H29.9999V13.6956C29.9999 14.4149 30.585 15 31.3042 15C32.0234 15 32.6086 14.4149 32.6086 13.6956V8.47825C32.6086 7.03982 31.4383 5.86956 29.9999 5.86956C28.5614 5.86956 27.3912 7.03982 27.3912 8.47825H24.7825C24.7825 5.60139 27.123 3.26086 29.9999 3.26086C32.8767 3.26086 35.2173 5.60139 35.2173 8.47825V13.6956C35.2173 15.8533 33.4619 17.6087 31.3042 17.6087Z" fill="#FC5A37"/>
</g>
</svg>
